# xmcd
# 
# Track frame offsets:
#     150
#     20713
#     42668
#     66801
#     84200
#     102800
#     117181
#     136558
#     152134
#     175564
#     194720
#     211495
# 
# Disc length: 3044
# 
# Revision: 2
# Processed by: cddbd v1.5.2PL0 Copyright (c) Steve Scherf et al.
# Submitted via: fre:ac v1.0.17
# 
DISCID=9e0be20c
DTITLE=Sheryl Crow - Icon
DYEAR=2011
DGENRE=Pop-Rock
TTITLE0=All I Wanna Do
TTITLE1=Soak Up The Sun
TTITLE2=If It Makes You Happy
TTITLE3=A Change Would Do You Good
TTITLE4=My Favorite Mistake
TTITLE5=Strong Enough
TTITLE6=Everyday Is A Winding Road
TTITLE7=Steve McQueen
TTITLE8=Leaving Las Vegas
TTITLE9=Always On Your Side
TTITLE10=Can't Cry Anymore
TTITLE11=The First Cut Is The Deepest
EXTD=
EXTT0=
EXTT1=
EXTT2=
EXTT3=
EXTT4=
EXTT5=
EXTT6=
EXTT7=
EXTT8=
EXTT9=
EXTT10=
EXTT11=
PLAYORDER=
